PathFileType	4	(X/Y/Z)	OpenSim_Sub08_EMGBaseline_Gyro.trc
DataRate	CameraRate	NumFrames	NumMarkers	Units	OrigDataRate	OrigDataStartFrame	OrigNumFrames
100	100	24	8	m	100	3328	6654
Frame#	Time	torso_imu_offset_imu	pelvis_imu_offset_imu	tibia_r_imu_offset_imu	femur_r_imu_offset_imu	tibia_l_imu_offset_imu	femur_l_imu_offset_imu	toes_r_imu_offset_imu	toes_l_imu_offset_imu
				X1	Y1	Z1	X2	Y2	Z2	X3	Y3	Z3	X4	Y4	Z4	X5	Y5	Z5	X6	Y6	Z6	X7	Y7	Z7	X8		Y8	Z8	

3328	33.27000000	-0.16649558	-0.34124175	-0.08738585	0.10472549	-0.02118179	-0.05182759	0.19972555	0.78333401	4.30234671	-0.89592925	0.24220568	-0.12987375	0.26219075	-0.19907917	0.64531173	0.19257513	-0.29554722	0.63511581	-1.51459283	4.00354664	2.62987618	0.06452184	0.01631665	0.17840509
3329	33.28000000	-0.11177102	-0.33872737	-0.08804167	0.12878412	-0.06928388	-0.05011573	0.55276351	0.97909954	4.17117719	-0.83471602	0.29176076	-0.22620993	0.29794584	-0.18299982	0.67815288	0.16480738	-0.29697813	0.62404372	-1.20362665	4.02728683	2.59471221	0.06639238	-0.00427976	0.18698744
3330	33.29000000	-0.06056558	-0.33854123	-0.09598322	0.15554711	-0.09605853	-0.05512912	1.00234286	1.12644711	4.32141656	-0.67463361	0.36838581	-0.33414334	0.31790403	-0.17715591	0.67889139	0.14635762	-0.29540324	0.60738528	-0.99257172	3.97738321	2.67486235	0.07042778	-0.01756909	0.18176424
3331	33.30000000	-0.01236207	-0.33756854	-0.08835635	0.19694293	-0.10603060	-0.06161030	1.52705442	1.12322555	4.50730673	-0.48275201	0.43675503	-0.42449331	0.30770855	-0.18698214	0.69070723	0.14025937	-0.29126066	0.61006667	-0.88018687	3.79439479	2.89455789	0.04787113	-0.01997632	0.17230467
3332	33.31000000	0.01596703	-0.33289855	-0.07137969	0.23416476	-0.10067200	-0.06339326	1.89986512	0.98227919	4.46658920	-0.34331743	0.45921181	-0.46139867	0.25646325	-0.20440910	0.75391635	0.15412677	-0.27603000	0.59665774	-0.65837681	3.55369866	3.20180085	0.08874707	-0.05075742	0.15622277
3333	33.32000000	0.03192502	-0.32146649	-0.06091707	0.26371947	-0.08329527	-0.05934114	2.10987720	0.87252054	4.10958057	-0.27106169	0.44508374	-0.45805520	0.18950376	-0.19738175	0.78716258	0.18171267	-0.25446619	0.57038028	-0.33628898	3.29687914	3.55233784	0.07513925	-0.04137303	0.18881994
3334	33.33000000	0.04287069	-0.29055714	-0.04764945	0.29318220	-0.06531544	-0.03580079	2.27339271	0.90887394	3.58914798	-0.20651564	0.39773362	-0.45641862	0.14316299	-0.18627761	0.77392765	0.22295927	-0.24023956	0.57938837	0.05596054	3.02515527	3.89584315	0.05786115	-0.08847144	0.21863022
3335	33.34000000	0.04619862	-0.24920783	-0.03821264	0.30941470	-0.03644664	-0.01109690	2.45390285	1.01069191	3.14598282	-0.13641058	0.32959011	-0.47287600	0.14853752	-0.19117783	0.79287018	0.24641925	-0.20692795	0.56597092	0.45596400	2.66682608	4.14122369	0.08258302	-0.08182724	0.26399622
3336	33.35000000	0.05402102	-0.20215259	-0.03006722	0.33060858	0.01430912	0.02293955	2.63777355	1.08522484	2.88101217	-0.06753440	0.26523603	-0.52107627	0.16495867	-0.17513547	0.84512197	0.29909287	-0.18301550	0.55964782	0.87635711	2.21692337	4.22362498	-0.00188105	-0.10683553	0.27356903
3337	33.36000000	0.05851958	-0.15263758	-0.02451501	0.34271900	0.08939368	0.06860330	2.79217552	1.05526581	2.62331893	0.02024668	0.23809853	-0.58547846	0.17658583	-0.14735156	0.91481979	0.35132553	-0.15968789	0.52427765	1.26003908	1.73578680	4.13545653	0.05842251	-0.15344942	0.19562218
3338	33.37000000	0.06264134	-0.10638853	-0.02325364	0.34107055	0.18546387	0.12226645	2.94814164	0.92980014	2.17603096	0.14582781	0.26104157	-0.62197726	0.14407467	-0.11290977	0.97149547	0.40897516	-0.11018438	0.49934241	1.55067528	1.21125149	3.88291857	0.10094752	-0.20818914	0.14688742
3339	33.38000000	0.06606417	-0.05524719	-0.01026301	0.31536524	0.27075082	0.18232664	3.07076597	0.79567356	1.57395850	0.27906648	0.29700138	-0.60196687	0.08575855	-0.10601313	1.00312650	0.43248985	-0.07029254	0.49154523	1.50961497	0.71611836	3.54139776	0.06084874	-0.29774780	0.08169824
3340	33.39000000	0.06403815	-0.00546956	-0.00803016	0.26065540	0.29341030	0.23346327	2.74974073	0.63176634	1.02213604	0.38107086	0.32412603	-0.51466246	0.08260872	-0.09850739	1.04783699	0.39940152	-0.06029842	0.48026515	0.86675194	0.37051558	3.12528589	0.18858155	-0.34603060	0.04277880
3341	33.40000000	0.06081474	0.03444298	-0.00784262	0.20056669	0.27083167	0.27015252	2.10365739	0.39754803	0.50565289	0.55563154	0.30449972	-0.36507764	0.12801518	-0.10832301	1.13212185	0.35699552	-0.05654336	0.47935055	0.42808563	0.03782704	2.53585514	0.21304609	-0.40316585	0.05730874
3342	33.41000000	0.05741374	0.06963326	-0.00640642	0.15066152	0.22582589	0.30114593	1.65844708	0.12842723	-0.07300996	0.87012264	0.22500854	-0.20759642	0.21104120	-0.09393174	1.18755269	0.32735028	-0.05931349	0.48084336	0.48983381	-0.41980828	1.80597972	0.19777855	-0.45644973	0.08201956
3343	33.42000000	0.04607561	0.09535889	-0.00739970	0.09810100	0.16063264	0.32009119	1.11676169	-0.11662936	-0.56612791	1.15384708	0.09491377	-0.05931164	0.30314825	-0.06582910	1.20456080	0.30730889	-0.05515997	0.49049520	0.32893932	-0.72326038	1.12773312	0.24718270	-0.55711854	0.08731726
3344	33.43000000	0.03108926	0.11384221	-0.00723129	0.04743975	0.09530534	0.33805731	0.58367382	-0.32266089	-0.97878966	1.25529118	-0.03060140	0.08576578	0.33162304	-0.05145583	1.23165325	0.30216683	-0.04247246	0.50211096	0.69433123	-1.35493924	0.26685174	0.25823255	-0.66086299	0.08723102
3345	33.44000000	0.02739202	0.13458164	-0.01381948	0.01577029	0.05891138	0.35603392	0.30408481	-0.54629721	-1.38200994	1.17259384	-0.16394285	0.18482494	0.33079241	-0.03717325	1.27530293	0.32017106	-0.02222778	0.51844247	-0.63269751	-1.43624089	-0.44353656	0.24556809	-0.78587341	0.04989531
3346	33.45000000	0.02204278	0.15323910	-0.02136740	-0.00755372	0.06575105	0.37912590	0.09391885	-0.80003178	-1.72017893	1.01840290	-0.35946963	0.16986128	0.31227975	-0.01700457	1.33396789	0.34815387	0.01149340	0.53813614	-2.62816554	-1.69994214	-0.88208236	0.31727987	-0.90014862	-0.00756013
3347	33.46000000	0.01502928	0.17519924	-0.03432384	-0.03532793	0.10043276	0.40756774	-0.39356996	-1.00329588	-1.79363405	0.88032517	-0.57839809	0.03641863	0.30543888	-0.00208035	1.37099881	0.35915787	0.03287075	0.56625235	-0.21998593	-1.88317400	-1.53507122	0.30723189	-1.13525602	-0.03791039
3348	33.47000000	0.01630150	0.19995898	-0.04513934	-0.07484163	0.12475663	0.44081281	-1.65064719	-0.89144171	-1.17646116	0.75306521	-0.77861008	-0.17971308	0.32905403	0.02590457	1.37593506	0.36211515	0.05941417	0.60368142	0.62463518	-1.26910573	-1.58669299	0.30665402	-1.37595477	-0.06264429
3349	33.48000000	0.01049092	0.22298029	-0.05071594	-0.16265064	0.08852168	0.47097507	-2.31264192	-0.58915011	-0.15830501	0.58038552	-0.90155801	-0.41514514	0.38084433	0.04439214	1.40861432	0.38219688	0.10066705	0.63584075	-0.75555900	-2.74533286	-1.16122300	0.35929103	-1.59892134	-0.05465857
3350	33.49000000	0.00385081	0.27194100	-0.06211483	-0.29680527	0.00307256	0.49036732	-1.39302897	-0.52992196	0.15578933	0.33844118	-0.81781238	-0.62990848	0.43069995	0.03892806	1.47737352	0.39271765	0.12850526	0.65011795	-0.28828341	-2.92727955	-0.36344423	0.36548817	-1.86587555	0.03035121
3351	33.50000000	0.00038230	0.34299350	-0.07616063	-0.40415449	-0.08559661	0.49223292	-0.63194915	-0.59461718	-0.41478310	0.07567726	-0.56907791	-0.74710694	0.49058926	0.03466650	1.52674627	0.36634370	0.17151736	0.63716814	0.08639166	-2.88104305	0.23398297	0.28284285	-2.14511610	0.10315377
